<?xml version="1.0" encoding="UTF-8" standalone="no"?>
<!-- Created with Inkscape (http://www.inkscape.org/) -->

<svg
   width="25.4mm"
   height="128.5mm"
   viewBox="0 0 25.4 128.5"
   version="1.1"
   id="svg5"
   inkscape:version="1.3.1 (91b66b0783, 2023-11-16)"
   sodipodi:docname="additive.svg"
   xmlns:inkscape="http://www.inkscape.org/namespaces/inkscape"
   xmlns:sodipodi="http://sodipodi.sourceforge.net/DTD/sodipodi-0.dtd"
   xmlns="http://www.w3.org/2000/svg"
   xmlns:svg="http://www.w3.org/2000/svg">
  <sodipodi:namedview
     id="namedview7"
     pagecolor="#ffffff"
     bordercolor="#000000"
     borderopacity="0.25"
     inkscape:showpageshadow="2"
     inkscape:pageopacity="0.0"
     inkscape:pagecheckerboard="0"
     inkscape:deskcolor="#d1d1d1"
     inkscape:document-units="mm"
     showgrid="false"
     inkscape:zoom="2.9825758"
     inkscape:cx="29.839979"
     inkscape:cy="167.13741"
     inkscape:window-width="1920"
     inkscape:window-height="1017"
     inkscape:window-x="-8"
     inkscape:window-y="-8"
     inkscape:window-maximized="1"
     inkscape:current-layer="layer2"
     showguides="true">
    <sodipodi:guide
       position="-43.90905,59.249156"
       orientation="0,-1"
       id="guide949"
       inkscape:locked="false" />
    <sodipodi:guide
       position="12.596774,87.338712"
       orientation="1,0"
       id="guide1458"
       inkscape:locked="false" />
    <sodipodi:guide
       position="8.2499999,89.201615"
       orientation="1,0"
       id="guide3"
       inkscape:locked="false" />
    <sodipodi:guide
       position="17.919354,89.112906"
       orientation="1,0"
       id="guide4"
       inkscape:locked="false" />
  </sodipodi:namedview>
  <defs
     id="defs2">
    <rect
       x="13.075946"
       y="5.6997712"
       width="69.067816"
       height="21.793243"
       id="rect2" />
  </defs>
  <g
     inkscape:label="Layer 1"
     inkscape:groupmode="layer"
     id="layer1"
     style="display:inline">
    <rect
       style="fill:#4d4d4d;stroke-width:0.264583"
       id="rect1133"
       width="25.548388"
       height="129.16129"
       x="0"
       y="0" />
    <path
       style="fill:#b3b3b3;stroke-width:0.300813"
       d="m 25.590971,2.5035323e-6 c 0,0 -14.214874,3.3489905964677 -19.4269917,14.6840364964677 -5.21212011,11.335044 6.7915497,22.283669 6.4756637,32.845868 -0.315886,10.5622 -9.5651488,22.781868 -5.6165733,28.835812 3.9485763,6.053946 10.1007133,18.522019 12.4865993,24.182511 2.494601,5.91843 5.960347,28.16801 5.960347,28.16801 z"
       id="path402-3"
       sodipodi:nodetypes="csssscc" />
    <path
       style="fill:#cccccc;stroke-width:0.264583"
       d="m 25.467249,0.12545442 c 0,0 -3.276588,4.25914608 -7.416584,15.29913658 -4.139996,11.039989 4.152605,21.171359 3.901696,31.45862 -0.250909,10.287262 -9.477348,22.707251 -6.340988,28.603609 3.136361,5.896359 4.335881,15.593094 6.217697,21.113088 1.881817,5.519992 3.512725,32.367242 3.512725,32.367242 z"
       id="path402"
       sodipodi:nodetypes="csssscc" />
    <rect
       style="display:none;fill:#afafaf;fill-opacity:1;stroke-width:0.264583"
       id="rect1"
       width="11.918171"
       height="65.738121"
       x="6.774539"
       y="9.2836275" />
    <g
       aria-label="V/Oct"
       id="text286"
       style="font-size:3.175px;stroke-width:0.264583"
       transform="translate(-1.9302327,0.10080387)">
      <path
         d="m 11.8159,11.156673 -0.809625,2.26695 h -0.28575 L 9.9109001,11.156673 H 10.20935 l 0.511175,1.45415 q 0.0508,0.1397 0.08255,0.263525 0.03492,0.12065 0.06033,0.231775 0.02222,-0.111125 0.05715,-0.23495 0.03492,-0.123825 0.08573,-0.2667 l 0.508,-1.4478 z"
         id="path652" />
      <path
         d="m 12.965251,11.156673 -0.84455,2.26695 h -0.27305 l 0.84455,-2.26695 z"
         id="path654" />
      <path
         d="m 15.283,12.286973 q 0,0.352425 -0.12065,0.61595 -0.117475,0.26035 -0.352425,0.4064 -0.231775,0.14605 -0.5715,0.14605 -0.352425,0 -0.587375,-0.14605 -0.231775,-0.14605 -0.346075,-0.409575 -0.1143,-0.263525 -0.1143,-0.61595 0,-0.346075 0.1143,-0.606425 0.1143,-0.263525 0.346075,-0.409575 0.23495,-0.14605 0.59055,-0.14605 0.339725,0 0.5715,0.14605 0.231775,0.142875 0.34925,0.4064 0.12065,0.26035 0.12065,0.612775 z m -1.7907,0 q 0,0.428625 0.180975,0.676275 0.180975,0.244475 0.56515,0.244475 0.384175,0 0.561975,-0.244475 0.180975,-0.24765 0.180975,-0.676275 0,-0.428625 -0.1778,-0.669925 -0.1778,-0.244475 -0.561975,-0.244475 -0.38735,0 -0.568325,0.244475 -0.180975,0.2413 -0.180975,0.669925 z"
         id="path656" />
      <path
         d="m 16.429176,13.455373 q -0.2286,0 -0.403225,-0.09207 -0.174625,-0.09207 -0.276225,-0.28575 -0.09843,-0.193675 -0.09843,-0.4953 0,-0.314325 0.1016,-0.511175 0.104775,-0.19685 0.28575,-0.288925 0.180975,-0.09207 0.409575,-0.09207 0.127,0 0.24765,0.02858 0.123825,0.0254 0.200025,0.0635 l -0.08573,0.231775 q -0.0762,-0.02858 -0.1778,-0.05397 -0.1016,-0.0254 -0.1905,-0.0254 -0.50165,0 -0.50165,0.644525 0,0.307975 0.12065,0.473075 0.123825,0.161925 0.365125,0.161925 0.136525,0 0.244475,-0.02858 0.10795,-0.02858 0.19685,-0.06985 v 0.24765 q -0.08573,0.04445 -0.1905,0.06668 -0.1016,0.0254 -0.24765,0.0254 z"
         id="path658" />
      <path
         d="m 17.838874,13.226773 q 0.0635,0 0.130175,-0.0095 0.06668,-0.0095 0.10795,-0.0254 v 0.212725 q -0.04445,0.02223 -0.127,0.03493 -0.08255,0.01587 -0.15875,0.01587 -0.13335,0 -0.24765,-0.04445 -0.111125,-0.04763 -0.180975,-0.161925 -0.06985,-0.1143 -0.06985,-0.320675 v -0.9906 h -0.2413 v -0.13335 l 0.244475,-0.111125 0.111125,-0.36195 h 0.1651 v 0.390525 h 0.492125 v 0.2159 h -0.492125 v 0.98425 q 0,0.155575 0.07303,0.231775 0.0762,0.07302 0.193675,0.07302 z"
         id="path660" />
    </g>
    <g
       aria-label="+1st"
       id="text292"
       style="font-size:3.175px;stroke-width:0.264583"
       transform="translate(-1.5430516,-0.01588777)">
      <path
         d="m 11.431892,23.608077 h 0.631825 v 0.225425 h -0.631825 v 0.65405 h -0.2286 v -0.65405 h -0.631825 v -0.225425 h 0.631825 v -0.657225 h 0.2286 z"
         id="path663" />
      <path
         d="m 13.355943,24.839977 h -0.27305 v -1.584325 q 0,-0.136525 0.0032,-0.219075 0.0032,-0.08255 0.0095,-0.17145 -0.0508,0.0508 -0.09525,0.08573 -0.04128,0.03492 -0.1016,0.0889 l -0.2413,0.19685 -0.14605,-0.187325 0.612775,-0.47625 h 0.231775 z"
         id="path665" />
      <path
         d="m 15.42287,24.370077 q 0,0.24765 -0.18415,0.37465 -0.18415,0.127 -0.4953,0.127 -0.1778,0 -0.307975,-0.02858 -0.127,-0.02858 -0.225425,-0.07937 v -0.254 q 0.1016,0.0508 0.244475,0.09525 0.14605,0.04127 0.295275,0.04127 0.212725,0 0.307975,-0.06668 0.09525,-0.06985 0.09525,-0.18415 0,-0.0635 -0.03493,-0.1143 -0.03492,-0.0508 -0.127,-0.1016 -0.0889,-0.0508 -0.257175,-0.1143 -0.1651,-0.0635 -0.282575,-0.127 -0.117475,-0.0635 -0.180975,-0.1524 -0.0635,-0.0889 -0.0635,-0.2286 0,-0.2159 0.174625,-0.333375 0.1778,-0.117475 0.46355,-0.117475 0.155575,0 0.288925,0.03175 0.136525,0.03175 0.254,0.08255 l -0.09525,0.22225 q -0.10795,-0.04445 -0.225425,-0.0762 -0.117475,-0.03175 -0.2413,-0.03175 -0.17145,0 -0.263525,0.05715 -0.0889,0.05398 -0.0889,0.149225 0,0.07302 0.04128,0.12065 0.04127,0.04763 0.136525,0.09525 0.09843,0.04763 0.26035,0.10795 0.161925,0.06032 0.276225,0.123825 0.1143,0.0635 0.174625,0.155575 0.06032,0.0889 0.06032,0.225425 z"
         id="path667" />
      <path
         d="m 16.403945,24.643127 q 0.0635,0 0.130175,-0.0095 0.06668,-0.0095 0.10795,-0.0254 v 0.212725 q -0.04445,0.02222 -0.127,0.03492 -0.08255,0.01588 -0.15875,0.01588 -0.13335,0 -0.24765,-0.04445 -0.111125,-0.04763 -0.180975,-0.161925 -0.06985,-0.1143 -0.06985,-0.320675 v -0.9906 h -0.2413 v -0.13335 l 0.244475,-0.111125 0.111125,-0.36195 h 0.1651 v 0.390525 h 0.492125 v 0.2159 h -0.492125 v 0.98425 q 0,0.155575 0.07303,0.231775 0.0762,0.07303 0.193675,0.07303 z"
         id="path669" />
    </g>
    <g
       aria-label="+5st"
       id="text296"
       style="font-size:3.175px;stroke-width:0.264583"
       transform="translate(-2.0448696,0.28624049)">
      <path
         d="m 11.93371,33.644431 h 0.631825 v 0.225425 H 11.93371 v 0.65405 h -0.2286 v -0.65405 h -0.631825 v -0.225425 h 0.631825 v -0.657225 h 0.2286 z"
         id="path672" />
      <path
         d="m 13.603761,33.485681 q 0.346075,0 0.55245,0.174625 0.20955,0.174625 0.20955,0.492125 0,0.352425 -0.225425,0.555625 -0.22225,0.200025 -0.6223,0.200025 -0.1778,0 -0.3302,-0.03175 -0.1524,-0.03175 -0.257175,-0.09208 v -0.263525 q 0.1143,0.06985 0.276225,0.111125 0.1651,0.0381 0.314325,0.0381 0.250825,0 0.403225,-0.117475 0.155575,-0.12065 0.155575,-0.371475 0,-0.22225 -0.136525,-0.339725 -0.136525,-0.12065 -0.4318,-0.12065 -0.0889,0 -0.2032,0.01588 -0.1143,0.01588 -0.18415,0.03175 l -0.1397,-0.0889 0.08573,-1.069975 h 1.13665 v 0.254 h -0.898525 l -0.05397,0.657225 q 0.05397,-0.0095 0.14605,-0.02222 0.09207,-0.0127 0.2032,-0.0127 z"
         id="path674" />
      <path
         d="m 15.924688,34.406431 q 0,0.24765 -0.18415,0.37465 -0.18415,0.127 -0.4953,0.127 -0.1778,0 -0.307975,-0.02858 -0.127,-0.02857 -0.225425,-0.07937 v -0.254 q 0.1016,0.0508 0.244475,0.09525 0.14605,0.04127 0.295275,0.04127 0.212725,0 0.307975,-0.06668 0.09525,-0.06985 0.09525,-0.18415 0,-0.0635 -0.03493,-0.1143 -0.03492,-0.0508 -0.127,-0.1016 -0.0889,-0.0508 -0.257175,-0.1143 -0.1651,-0.0635 -0.282575,-0.127 -0.117475,-0.0635 -0.180975,-0.1524 -0.0635,-0.0889 -0.0635,-0.2286 0,-0.2159 0.174625,-0.333375 0.1778,-0.117475 0.46355,-0.117475 0.155575,0 0.288925,0.03175 0.136525,0.03175 0.254,0.08255 l -0.09525,0.22225 q -0.10795,-0.04445 -0.225425,-0.0762 -0.117475,-0.03175 -0.2413,-0.03175 -0.17145,0 -0.263525,0.05715 -0.0889,0.05398 -0.0889,0.149225 0,0.07303 0.04128,0.12065 0.04127,0.04763 0.136525,0.09525 0.09843,0.04763 0.26035,0.10795 0.161925,0.06032 0.276225,0.123825 0.1143,0.0635 0.174625,0.155575 0.06032,0.0889 0.06032,0.225425 z"
         id="path676" />
      <path
         d="m 16.905763,34.679481 q 0.0635,0 0.130175,-0.0095 0.06668,-0.0095 0.10795,-0.0254 v 0.212725 q -0.04445,0.02222 -0.127,0.03493 -0.08255,0.01588 -0.15875,0.01588 -0.13335,0 -0.24765,-0.04445 -0.111125,-0.04762 -0.180975,-0.161925 -0.06985,-0.1143 -0.06985,-0.320675 v -0.9906 h -0.2413 v -0.13335 l 0.244475,-0.111125 0.111125,-0.36195 h 0.1651 v 0.390525 h 0.492125 v 0.2159 h -0.492125 v 0.98425 q 0,0.155575 0.07303,0.231775 0.0762,0.07303 0.193675,0.07303 z"
         id="path678" />
    </g>
    <g
       aria-label="Clock"
       id="text832"
       style="font-size:3.175px;stroke-width:0.264583"
       transform="translate(-0.93014592,3.9032258)">
      <path
         d="m 10.939515,60.17752 q -0.365125,0 -0.574675,0.244475 -0.20955,0.244475 -0.20955,0.669925 0,0.422275 0.193675,0.669925 0.19685,0.244475 0.587375,0.244475 0.14605,0 0.2794,-0.0254 0.13335,-0.0254 0.263525,-0.0635 v 0.24765 q -0.127,0.04762 -0.263525,0.06985 -0.13335,0.02222 -0.320675,0.02222 -0.346075,0 -0.57785,-0.142875 -0.231775,-0.142875 -0.3492497,-0.4064 -0.1143,-0.263525 -0.1143,-0.619125 0,-0.3429 0.123825,-0.60325 0.1269997,-0.263525 0.3714747,-0.409575 0.244475,-0.149225 0.593725,-0.149225 0.358775,0 0.625475,0.13335 l -0.1143,0.2413 q -0.104775,-0.04762 -0.23495,-0.08572 -0.127,-0.0381 -0.2794,-0.0381 z"
         id="path836" />
      <path
         d="m 12.215865,62.225395 h -0.2794 v -2.413 h 0.2794 z"
         id="path838" />
      <path
         d="m 14.235163,61.37132 q 0,0.422275 -0.2159,0.65405 -0.212725,0.231775 -0.57785,0.231775 -0.225425,0 -0.403225,-0.1016 -0.174625,-0.104775 -0.276225,-0.301625 -0.1016,-0.200025 -0.1016,-0.4826 0,-0.422275 0.20955,-0.650875 0.212725,-0.2286 0.581025,-0.2286 0.2286,0 0.4064,0.104775 0.1778,0.1016 0.276225,0.29845 0.1016,0.193675 0.1016,0.47625 z m -1.285875,0 q 0,0.301625 0.117475,0.479425 0.12065,0.174625 0.381,0.174625 0.257175,0 0.377825,-0.174625 0.12065,-0.1778 0.12065,-0.479425 0,-0.301625 -0.12065,-0.473075 -0.12065,-0.17145 -0.381,-0.17145 -0.26035,0 -0.377825,0.17145 -0.117475,0.17145 -0.117475,0.473075 z"
         id="path840" />
      <path
         d="m 15.359112,62.257145 q -0.2286,0 -0.403225,-0.09208 -0.174625,-0.09208 -0.276225,-0.28575 -0.09843,-0.193675 -0.09843,-0.4953 0,-0.314325 0.1016,-0.511175 0.104775,-0.19685 0.28575,-0.288925 0.180975,-0.09208 0.409575,-0.09208 0.127,0 0.24765,0.02858 0.123825,0.0254 0.200025,0.0635 l -0.08573,0.231775 q -0.0762,-0.02857 -0.1778,-0.05398 -0.1016,-0.0254 -0.1905,-0.0254 -0.50165,0 -0.50165,0.644525 0,0.307975 0.12065,0.473075 0.123825,0.161925 0.365125,0.161925 0.136525,0 0.244475,-0.02857 0.10795,-0.02858 0.19685,-0.06985 v 0.24765 q -0.08573,0.04445 -0.1905,0.06667 -0.1016,0.0254 -0.24765,0.0254 z"
         id="path842" />
      <path
         d="m 16.47671,59.812395 v 1.260475 q 0,0.0508 -0.0064,0.13335 -0.0032,0.08255 -0.0064,0.142875 h 0.0127 q 0.01905,-0.0254 0.05715,-0.07303 0.0381,-0.04762 0.0762,-0.09525 0.04127,-0.0508 0.06985,-0.08255 l 0.542925,-0.574675 h 0.327025 l -0.688975,0.727075 0.7366,0.974725 h -0.33655 l -0.59055,-0.79375 -0.193675,0.168275 v 0.625475 h -0.276225 v -2.413 z"
         id="path844" />
    </g>
    <g
       aria-label="-1 st"
       id="text1397"
       style="font-size:3.175px;stroke-width:0.264583">
      <path
         d="m 9.3528062,45.401957 v -0.24765 h 0.7683498 v 0.24765 z"
         id="path1449" />
      <path
         d="m 11.375283,46.129032 h -0.27305 v -1.584325 q 0,-0.136525 0.0032,-0.219075 0.0032,-0.08255 0.0095,-0.17145 -0.0508,0.0508 -0.09525,0.08573 -0.04128,0.03493 -0.1016,0.0889 l -0.2413,0.19685 -0.14605,-0.187325 0.612775,-0.47625 h 0.231775 z"
         id="path1451" />
      <path
         d="m 14.26771,45.659132 q 0,0.24765 -0.18415,0.37465 -0.18415,0.127 -0.4953,0.127 -0.1778,0 -0.307975,-0.02857 -0.127,-0.02858 -0.225425,-0.07937 v -0.254 q 0.1016,0.0508 0.244475,0.09525 0.14605,0.04128 0.295275,0.04128 0.212725,0 0.307975,-0.06668 0.09525,-0.06985 0.09525,-0.18415 0,-0.0635 -0.03492,-0.1143 -0.03493,-0.0508 -0.127,-0.1016 -0.0889,-0.0508 -0.257175,-0.1143 -0.1651,-0.0635 -0.282575,-0.127 -0.117475,-0.0635 -0.180975,-0.1524 -0.0635,-0.0889 -0.0635,-0.2286 0,-0.2159 0.174625,-0.333375 0.1778,-0.117475 0.46355,-0.117475 0.155575,0 0.288925,0.03175 0.136525,0.03175 0.254,0.08255 l -0.09525,0.22225 q -0.10795,-0.04445 -0.225425,-0.0762 -0.117475,-0.03175 -0.2413,-0.03175 -0.17145,0 -0.263525,0.05715 -0.0889,0.05398 -0.0889,0.149225 0,0.07302 0.04128,0.12065 0.04128,0.04762 0.136525,0.09525 0.09842,0.04762 0.26035,0.10795 0.161925,0.06032 0.276225,0.123825 0.1143,0.0635 0.174625,0.155575 0.06032,0.0889 0.06032,0.225425 z"
         id="path1453" />
      <path
         d="m 15.248785,45.932182 q 0.0635,0 0.130175,-0.0095 0.06668,-0.0095 0.10795,-0.0254 v 0.212725 q -0.04445,0.02222 -0.127,0.03493 -0.08255,0.01587 -0.15875,0.01587 -0.13335,0 -0.24765,-0.04445 -0.111125,-0.04762 -0.180975,-0.161925 -0.06985,-0.1143 -0.06985,-0.320675 v -0.9906 h -0.2413 v -0.13335 l 0.244475,-0.111125 0.111125,-0.36195 h 0.1651 v 0.390525 h 0.492125 v 0.2159 h -0.492125 v 0.98425 q 0,0.155575 0.07303,0.231775 0.0762,0.07302 0.193675,0.07302 z"
         id="path1455" />
    </g>
    <g
       aria-label="-5 st"
       id="text1401"
       style="font-size:3.175px;stroke-width:0.264583">
      <path
         d="m 9.1753866,55.160025 v -0.24765 h 0.76835 v 0.24765 z"
         id="path1440" />
      <path
         d="m 10.943863,54.49645 q 0.346075,0 0.55245,0.174625 0.20955,0.174625 0.20955,0.492125 0,0.352425 -0.225425,0.555625 -0.22225,0.200025 -0.6223,0.200025 -0.1778,0 -0.3302,-0.03175 -0.1524,-0.03175 -0.257175,-0.09207 V 55.5315 q 0.1143,0.06985 0.276225,0.111125 0.1651,0.0381 0.314325,0.0381 0.250825,0 0.403225,-0.117475 0.155575,-0.12065 0.155575,-0.371475 0,-0.22225 -0.136525,-0.339725 -0.136525,-0.12065 -0.4318,-0.12065 -0.0889,0 -0.2032,0.01588 -0.1143,0.01588 -0.18415,0.03175 l -0.1397,-0.0889 0.08573,-1.069975 h 1.13665 v 0.254 h -0.898525 l -0.05397,0.657225 q 0.05397,-0.0095 0.14605,-0.02222 0.09208,-0.0127 0.2032,-0.0127 z"
         id="path1442" />
      <path
         d="m 14.09029,55.4172 q 0,0.24765 -0.18415,0.37465 -0.18415,0.127 -0.4953,0.127 -0.1778,0 -0.307975,-0.02857 -0.127,-0.02858 -0.225425,-0.07938 v -0.254 q 0.1016,0.0508 0.244475,0.09525 0.14605,0.04127 0.295275,0.04127 0.212725,0 0.307975,-0.06667 0.09525,-0.06985 0.09525,-0.18415 0,-0.0635 -0.03493,-0.1143 -0.03492,-0.0508 -0.127,-0.1016 -0.0889,-0.0508 -0.257175,-0.1143 -0.1651,-0.0635 -0.282575,-0.127 -0.117475,-0.0635 -0.180975,-0.1524 -0.0635,-0.0889 -0.0635,-0.2286 0,-0.2159 0.174625,-0.333375 0.1778,-0.117475 0.46355,-0.117475 0.155575,0 0.288925,0.03175 0.136525,0.03175 0.254,0.08255 l -0.09525,0.22225 q -0.10795,-0.04445 -0.225425,-0.0762 -0.117475,-0.03175 -0.2413,-0.03175 -0.17145,0 -0.263525,0.05715 -0.0889,0.05397 -0.0889,0.149225 0,0.07303 0.04128,0.12065 0.04128,0.04762 0.136525,0.09525 0.09842,0.04762 0.26035,0.10795 0.161925,0.06033 0.276225,0.123825 0.1143,0.0635 0.174625,0.155575 0.06032,0.0889 0.06032,0.225425 z"
         id="path1444" />
      <path
         d="m 15.071366,55.69025 q 0.0635,0 0.130175,-0.0095 0.06668,-0.0095 0.10795,-0.0254 v 0.212725 q -0.04445,0.02223 -0.127,0.03493 -0.08255,0.01588 -0.15875,0.01588 -0.13335,0 -0.24765,-0.04445 -0.111125,-0.04763 -0.180975,-0.161925 -0.06985,-0.1143 -0.06985,-0.320675 v -0.9906 h -0.2413 v -0.13335 l 0.244475,-0.111125 0.111125,-0.36195 h 0.1651 v 0.39049 h 0.492125 v 0.2159 h -0.492125 v 0.98425 q 0,0.155575 0.07303,0.231775 0.0762,0.07303 0.193675,0.07303 z"
         id="path1446" />
    </g>
    <rect
       style="fill:#444444;fill-opacity:1;stroke-width:0.264583"
       id="rect3"
       width="18.096775"
       height="4.4354839"
       x="3.7258065"
       y="1.2419354" />
    <path
       d="m 21.126953,16.647183 h -1.236328 l -0.855469,-2.431641 h -3.773437 l -0.855469,2.431641 h -1.177734 l 3.175781,-8.7246098 h 1.546875 z M 18.677734,13.219448 17.148437,8.9362451 15.613281,13.219448 Z m 11.144532,-0.925781 q 0,1.189453 -0.521485,2.15625 -0.515625,0.966797 -1.376953,1.5 -0.597656,0.369141 -1.335937,0.533203 -0.732422,0.164063 -1.933594,0.164063 H 22.451172 V 7.9225732 h 2.179687 q 1.277344,0 2.027344,0.1875 0.755859,0.1816406 1.277344,0.5039062 0.890625,0.5566407 1.388672,1.4824216 0.498047,0.925782 0.498047,2.197266 z m -1.212891,-0.01758 q 0,-1.025391 -0.357422,-1.728516 Q 27.894531,9.8444482 27.185547,9.4401513 26.669922,9.1471826 26.089844,9.0358544 25.509766,8.9186669 24.701172,8.9186669 h -1.089844 v 6.7324221 h 1.089844 q 0.83789,0 1.458984,-0.123047 0.626953,-0.123047 1.148438,-0.457031 0.65039,-0.416016 0.972656,-1.095703 0.328125,-0.679688 0.328125,-1.699219 z m 10.458984,0.01758 q 0,1.189453 -0.521484,2.15625 -0.515625,0.966797 -1.376953,1.5 -0.597656,0.369141 -1.335938,0.533203 -0.732422,0.164063 -1.933593,0.164063 H 31.697266 V 7.9225732 h 2.179687 q 1.277344,0 2.027344,0.1875 0.755859,0.1816406 1.277344,0.5039062 0.890625,0.5566407 1.388671,1.4824216 0.498047,0.925782 0.498047,2.197266 z m -1.21289,-0.01758 q 0,-1.025391 -0.357422,-1.728516 Q 37.140625,9.8444482 36.431641,9.4401513 35.916016,9.1471826 35.335937,9.0358544 34.755859,8.9186669 33.947266,8.9186669 h -1.089844 v 6.7324221 h 1.089844 q 0.83789,0 1.458984,-0.123047 0.626953,-0.123047 1.148437,-0.457031 0.650391,-0.416016 0.972657,-1.095703 0.328125,-0.679688 0.328125,-1.699219 z m 6.164062,4.371094 h -3.445312 v -0.890625 h 1.142578 V 8.8131982 h -1.142578 v -0.890625 h 3.445312 v 0.890625 h -1.142578 v 6.9433598 h 1.142578 z M 52.216797,8.9538232 H 49.099609 V 16.647183 H 47.939453 V 8.9538232 h -3.117187 v -1.03125 h 7.394531 z m 4.248047,7.6933598 h -3.445313 v -0.890625 h 1.142578 V 8.8131982 h -1.142578 v -0.890625 h 3.445313 v 0.890625 h -1.142578 v 6.9433598 h 1.142578 z M 65.318359,7.9225732 62.142578,16.647183 H 60.595703 L 57.419922,7.9225732 h 1.242187 l 2.736328,7.6757808 2.736329,-7.6757808 z m 7.072266,8.7246098 H 66.642578 V 7.9225732 h 5.748047 v 1.03125 h -4.587891 v 2.3906248 h 4.587891 v 1.03125 h -4.587891 v 3.240235 h 4.587891 z"
       id="text1"
       style="white-space:pre;fill:#ffffff"
       inkscape:label="Title"
       transform="matrix(0.26458333,0,0,0.26458333,1.2419355,0.17741935)"
       aria-label="ADDITIVE" />
  </g>
  <g
     inkscape:groupmode="layer"
     id="layer2"
     inkscape:label="components"
     style="display:inline">
    <circle
       style="fill:#00ff00;stroke-width:0.264583"
       id="path118-8"
       cx="12.479434"
       cy="71.885384"
       r="1.5681803"
       inkscape:label="CLKIN" />
    <circle
       style="fill:#0000ff;stroke-width:0.264583"
       id="path116"
       cx="12.479434"
       cy="18.234093"
       r="1.756362" />
    <circle
       style="fill:#00ff00;stroke-width:0.264583"
       id="path118"
       cx="8.3348141"
       cy="29.136379"
       r="1.5681803" />
    <circle
       style="fill:#00ff00;stroke-width:0.264583"
       id="path120"
       cx="8.3348141"
       cy="38.639961"
       r="1.8818164" />
    <circle
       style="display:inline;fill:#00ff00;stroke-width:0.264583"
       id="path118-7"
       cx="8.3348141"
       cy="50.387096"
       r="1.5681803" />
    <circle
       style="display:inline;fill:#00ff00;stroke-width:0.264583"
       id="path118-3"
       cx="8.3348141"
       cy="60.5"
       r="1.5681803" />
  </g>
</svg>
